<svg width="1108" height="663" viewBox="0 0 1108 663" fill="none" xmlns="http://www.w3.org/2000/svg">
<path d="M360.83 543.65C359.83 593.13 320.09 632.51 271.85 631.83C223.6 631.15 184.93 590.67 185.26 541.18C185.59 491.7 224.79 451.75 273.04 451.74C296.57 451.99 319.04 461.81 335.5 479.04C351.97 496.28 361.08 519.52 360.84 543.65H360.83Z" stroke="white" stroke-width="46.15" stroke-linecap="round" stroke-linejoin="round"/>
<path d="M977.01 543.65C976.01 593.13 936.27 632.51 888.03 631.83C839.78 631.15 801.11 590.67 801.44 541.18C801.77 491.7 840.96 451.75 889.21 451.74C912.74 451.99 935.21 461.81 951.67 479.04C968.14 496.28 977.25 519.52 977.01 543.65Z" stroke="white" stroke-width="46.15" stroke-linecap="round" stroke-linejoin="round"/>
<path d="M736.07 575.36C753.58 575.36 767.78 561.16 767.78 543.65C767.78 526.14 753.58 511.94 736.07 511.94V575.36Z" fill="white"/>
<path d="M704.52 543.65C704.52 561.16 718.71 575.36 736.23 575.36C753.75 575.36 767.94 561.16 767.94 543.65H704.52Z" fill="white"/>
<path d="M767.94 320.98C767.94 303.47 753.74 289.27 736.23 289.27C718.72 289.27 704.52 303.47 704.52 320.98H767.94Z" fill="white"/>
<path d="M736.23 511.95C718.71 511.95 704.52 526.15 704.52 543.66C704.52 561.17 718.71 575.37 736.23 575.37V511.95Z" fill="white"/>
<path d="M1069.96 444.68L1101.66 444.12C1101.63 442.48 1101.47 440.86 1101.19 439.25L1069.95 444.68H1069.96Z" fill="white"/>
<path d="M1079.68 315.55C1076.68 298.3 1060.26 286.74 1043.01 289.74C1025.76 292.74 1014.21 309.16 1017.2 326.41L1079.68 315.54V315.55Z" fill="white"/>
<path d="M736.06 91.3301C718.55 91.3301 704.35 105.53 704.35 123.04C704.35 140.55 718.55 154.75 736.06 154.75V91.3301Z" fill="white"/>
<path d="M938.26 123.04V154.75H938.46L938.26 123.04Z" fill="white"/>
<path d="M1005.43 152.08L982.32 173.79L1005.43 152.08Z" fill="white"/>
<path d="M1031.21 222.01L999.53 220.66C999.43 222.93 999.58 225.21 999.97 227.45L1031.21 222.01Z" fill="white"/>
<path d="M1017.2 326.42C1020.2 343.67 1036.62 355.22 1053.87 352.22C1071.12 349.21 1082.67 332.79 1079.67 315.54L1017.2 326.41V326.42Z" fill="white"/>
<path d="M767.77 123.04C767.77 105.53 753.58 91.3301 736.06 91.3301C718.54 91.3301 704.35 105.53 704.35 123.04H767.77Z" fill="white"/>
<path d="M704.35 320.98C704.35 338.49 718.55 352.69 736.06 352.69C753.57 352.69 767.77 338.49 767.77 320.98H704.35Z" fill="white"/>
<path d="M704.35 123.04C704.35 140.55 718.55 154.75 736.06 154.75C753.57 154.75 767.77 140.55 767.77 123.04H704.35Z" fill="white"/>
<path d="M736.06 89.2195L704.35 89.0195V89.2195H736.06Z" fill="white"/>
<path d="M692.2 43.6905L692.39 11.9805H692.2V43.6905Z" fill="white"/>
<path d="M86.36 43.6905V11.9805H86.21L86.36 43.6905Z" fill="white"/>
<path d="M55.2299 57.0896L32.4199 35.0596L55.2299 57.0896Z" fill="white"/>
<path d="M42.46 89.1402H74.17L74.16 88.9902L42.46 89.1402Z" fill="white"/>
<path d="M42.46 498.16L74.17 498.31V498.16H42.46Z" fill="white"/>
<path d="M55.2299 530.21L32.4199 552.24L55.2299 530.21Z" fill="white"/>
<path d="M86.36 543.61L86.21 575.32H86.36V543.61Z" fill="white"/>
<path d="M736.15 289.23C718.64 289.23 704.44 303.43 704.44 320.94C704.44 338.45 718.64 352.65 736.15 352.65V289.23Z" fill="white"/>
<path d="M1048.52 352.65C1066.03 352.65 1080.23 338.45 1080.23 320.94C1080.23 303.43 1066.03 289.23 1048.52 289.23V352.65Z" fill="white"/>
<path d="M397.61 136.53C380.1 136.53 365.9 150.73 365.9 168.24C365.9 185.75 380.1 199.95 397.61 199.95V136.53Z" fill="white"/>
<path d="M596.63 199.95C614.14 199.95 628.34 185.75 628.34 168.24C628.34 150.73 614.14 136.53 596.63 136.53V199.95Z" fill="white"/>
<path d="M438.83 263.36C421.32 263.36 407.12 277.56 407.12 295.07C407.12 312.58 421.32 326.78 438.83 326.78V263.36Z" fill="white"/>
<path d="M591.27 326.78C608.78 326.78 622.98 312.58 622.98 295.07C622.98 277.56 608.78 263.36 591.27 263.36V326.78Z" fill="white"/>
<path d="M463.98 390.19C446.47 390.19 432.27 404.39 432.27 421.9C432.27 439.41 446.47 453.61 463.98 453.61V390.19Z" fill="white"/>
<path d="M591.27 453.61C608.78 453.61 622.98 439.41 622.98 421.9C622.98 404.39 608.78 390.19 591.27 390.19V453.61Z" fill="white"/>
<path d="M736.07 511.95H353V575.37H736.07V511.95Z" fill="white"/>
<path d="M767.94 320.98H704.52V543.65H767.94V320.98Z" fill="white"/>
<path d="M782.5 511.95H736.23V575.37H782.5V511.95Z" fill="white"/>
<path d="M977.86 575.35C1048.3 573.82 1102.9 514.4 1101.66 444.12L1038.25 445.24C1038.9 482.11 1010.51 511.21 976.48 511.95L977.85 575.35H977.86Z" fill="white"/>
<path d="M1079.69 315.477L1017.21 326.348L1038.74 450.049L1101.22 439.178L1079.69 315.477Z" fill="white"/>
<path d="M938.27 91.3301H759.37V154.75H938.27V91.3301Z" fill="white"/>
<path d="M938.46 154.75C954.83 154.64 970.7 161.42 982.31 173.79L1028.54 130.38C1005.02 105.34 972.33 91.1204 938.05 91.3404L938.46 154.75Z" fill="white"/>
<path d="M982.32 173.79C993.97 186.19 1000.28 203.13 999.54 220.66L1062.9 223.36C1064.37 189 1052.04 155.38 1028.55 130.37L982.32 173.78V173.79Z" fill="white"/>
<path d="M1062.45 216.52L999.976 227.4L1017.21 326.371L1079.68 315.49L1062.45 216.52Z" fill="white"/>
<path d="M767.77 123.04H704.35V320.98H767.77V123.04Z" fill="white"/>
<path d="M767.77 89.2197H704.35V123.04H767.77V89.2197Z" fill="white"/>
<path d="M767.77 89.4199C767.9 69.2599 760.22 49.7099 746.17 35.1299L700.5 79.1199C702.91 81.6199 704.38 85.1599 704.36 89.0099L767.77 89.4199Z" fill="white"/>
<path d="M746.17 35.1402C732.1 20.5302 712.77 12.1002 692.39 11.9902L692.03 75.4002C695.06 75.4202 698.12 76.6602 700.5 79.1302L746.17 35.1402Z" fill="white"/>
<path d="M692.21 11.9805H86.3599V75.4005H692.21V11.9805Z" fill="white"/>
<path d="M86.2102 11.9805C65.8402 12.0805 46.5102 20.4805 32.4302 35.0605L78.0402 79.1205C80.4202 76.6505 83.4902 75.4105 86.5102 75.4005L86.2102 11.9905V11.9805Z" fill="white"/>
<path d="M32.42 35.0598C18.36 49.6098 10.65 69.1298 10.75 89.2798L74.16 88.9898C74.14 85.1498 75.62 81.6098 78.03 79.1098L32.42 35.0498V35.0598Z" fill="white"/>
<path d="M74.17 89.1396H10.75V498.17H74.17V89.1396Z" fill="white"/>
<path d="M10.7498 498.02C10.6598 518.17 18.3698 537.69 32.4198 552.24L78.0298 508.18C75.6198 505.69 74.1398 502.15 74.1598 498.3L10.7498 498.01V498.02Z" fill="white"/>
<path d="M32.4199 552.24C46.4999 566.82 65.8299 575.22 86.1999 575.32L86.4999 511.9C83.4699 511.89 80.4099 510.64 78.0299 508.18L32.4199 552.24Z" fill="white"/>
<path d="M180.73 511.9H86.3599V575.32H180.73V511.9Z" fill="white"/>
<path d="M1048.53 289.23H759.37V352.65H1048.53V289.23Z" fill="white"/>
<path d="M596.63 136.53H397.61V199.95H596.63V136.53Z" fill="white"/>
<path d="M591.27 263.36H438.83V326.78H591.27V263.36Z" fill="white"/>
<path d="M591.28 390.19H463.98V453.61H591.28V390.19Z" fill="white"/>
</svg>
