<svg xmlns:xlink="http://www.w3.org/1999/xlink" xmlns="http://www.w3.org/2000/svg" width="30" height="30" viewBox="0 0 40 40" fill="none">
                              <mask id="mask0_696_41223" style="mask-type:luminance" maskUnits="userSpaceOnUse" x="0" y="0" width="40" height="40" fill="none">
                                  <path d="M0 0.753365H39.2466V40H0V0.753365Z" fill="#FFFFFF" stroke="#FFFFFF"></path>
                              </mask>
                              <g mask="url(#mask0_696_41223)" fill="none">
                                  <path d="M16.9814 30.1733V24.5072M16.9814 39.0803V32.8971M22.4712 24.5072V39.0803" stroke="#FFFFFF" stroke-width="1.1498px" stroke-miterlimit="10" stroke-linecap="round" stroke-linejoin="round" fill="none"></path>
                                  <path d="M4.03693 29.8412L23.3671 19.0684C23.909 18.7654 24.1052 18.0765 23.8041 17.535L22.638 15.4441C22.3348 14.9025 21.6457 14.7063 21.1039 15.0095L1.77144 25.7822C1.23179 26.0832 1.03556 26.7719 1.33658 27.3135L2.50279 29.4066C2.80388 29.946 3.49507 30.1421 4.03693 29.8412Z" stroke="#FFFFFF" stroke-width="1.1498px" stroke-miterlimit="10" stroke-linecap="round" stroke-linejoin="round" fill="none"></path>
                                  <path d="M14.533 18.6695L16.7962 22.7285M10.6041 26.179L8.34082 22.12" stroke="#FFFFFF" stroke-width="1.1498px" stroke-miterlimit="10" stroke-linecap="round" stroke-linejoin="round" fill="none"></path>
                                  <path d="M7.11298 22.8065C-3.59453 24.077 0.100246 10.7944 9.22907 17.945" stroke="#FFFFFF" stroke-width="1.1498px" stroke-miterlimit="10" stroke-linecap="round" stroke-linejoin="round" fill="none"></path>
                                  <path d="M13.5699 24.5072H29.9857C30.4361 24.5072 30.8063 24.8772 30.8063 25.3274V28.0691V37.6136C30.8063 38.4206 30.1463 39.0803 29.339 39.0803H10.1136C9.30647 39.0803 8.64648 38.4206 8.64648 37.6136V27.2711" stroke="#FFFFFF" stroke-width="1.1498px" stroke-miterlimit="10" stroke-linecap="round" stroke-linejoin="round" fill="none"></path>
                                  <path d="M8.34045 22.1201L14.5326 18.6696L13.75 17.2676C13.3196 16.4941 12.334 16.2155 11.5625 16.6457L8.17994 18.5314C7.4062 18.9616 7.12741 19.9446 7.55782 20.7158L8.34045 22.1201Z" stroke="#FFFFFF" stroke-width="1.1498px" stroke-miterlimit="10" stroke-linecap="round" stroke-linejoin="round" fill="none"></path>
                                  <path d="M7.3631 19.8064C6.43774 19.4698 5.72639 19.2937 4.48438 19.1578" stroke="#FFFFFF" stroke-width="1.1498px" stroke-miterlimit="10" stroke-linecap="round" stroke-linejoin="round" fill="none"></path>
                                  <path d="M11.3442 11.9178C10.6708 13.0814 10.3162 14.8088 10.5815 17.1916M15.8305 17.9473C20.1943 12.4617 16.1181 8.91763 13.0879 10.2795" stroke="#FFFFFF" stroke-width="1.1498px" stroke-miterlimit="10" stroke-linecap="round" stroke-linejoin="round" fill="none"></path>
                                  <path d="M13.1465 16.6567C13.2111 15.8409 13.608 14.6127 14.1076 13.7924" stroke="#FFFFFF" stroke-width="1.1498px" stroke-miterlimit="10" stroke-linecap="round" stroke-linejoin="round" fill="none"></path>
                                  <path d="M28.4492 10.9905C28.4492 10.9905 29.243 18.3195 26.5762 21.2104" stroke="#FFFFFF" stroke-width="1.1498px" stroke-miterlimit="10" stroke-linecap="round" stroke-linejoin="round" fill="none"></path>
                                  <path d="M32.4033 13.1995C32.4033 13.1995 33.5539 8.13074 38.6713 6.90927" stroke="#FFFFFF" stroke-width="1.1498px" stroke-miterlimit="10" stroke-linecap="round" stroke-linejoin="round" fill="none"></path>
                                  <path d="M23.7332 2.72106L22.848 4.19886C22.7521 4.35937 22.7387 4.41288 22.5403 4.46186L20.7877 4.89656C20.4487 4.98126 20.4309 5.05922 20.6628 5.32229L21.7933 6.68198C21.9137 6.82685 21.9316 6.99626 21.9159 7.2013L21.78 8.88201C21.742 9.22971 21.8156 9.27202 22.1411 9.14056L23.682 8.49859C23.8425 8.43175 24.0945 8.43175 24.2528 8.49859L25.7958 9.14056C26.1214 9.27202 26.1927 9.22971 26.1548 8.88201L26.021 7.2013C26.0055 6.99626 26.021 6.82685 26.1437 6.68198L27.272 5.32229C27.5038 5.05922 27.4883 4.98126 27.1471 4.89656L25.3945 4.46186C25.196 4.41288 25.1848 4.35937 25.0868 4.19886L24.2015 2.72106C24.0231 2.42011 23.9138 2.42011 23.7332 2.72106Z" stroke="#FFFFFF" stroke-width="1.1498px" stroke-miterlimit="10" stroke-linecap="round" stroke-linejoin="round" fill="none"></path>
                                  <path d="M34.979 15.9367L34.0915 17.4145C33.9956 17.575 33.9823 17.6285 33.7861 17.6775L32.0335 18.1122C31.6923 18.1969 31.6745 18.2749 31.9086 18.538L33.0368 19.8976C33.1595 20.0425 33.1751 20.2119 33.1595 20.417L33.0235 22.0954C32.9878 22.4454 33.0592 22.4877 33.3847 22.3562L34.9255 21.7142C35.086 21.6474 35.338 21.6474 35.4986 21.7142L37.0393 22.3562C37.3649 22.4877 37.4363 22.4454 37.4006 22.0954L37.2645 20.417C37.249 20.2119 37.2645 20.0425 37.3872 19.8976L38.5155 18.538C38.7496 18.2749 38.7318 18.1969 38.3906 18.1122L36.638 17.6775C36.4418 17.6285 36.4284 17.575 36.3325 17.4145L35.4473 15.9367C35.2666 15.6358 35.1574 15.6358 34.979 15.9367Z" stroke="#FFFFFF" stroke-width="1.1498px" stroke-miterlimit="10" stroke-linecap="round" stroke-linejoin="round" fill="none"></path>
                                  <path d="M33.1136 6.27173C34.3824 6.27173 35.4149 5.23966 35.4149 3.97365C35.4149 2.70534 34.3824 1.67328 33.1136 1.67328C31.8471 1.67328 30.8125 2.70534 30.8125 3.97365C30.8125 5.23966 31.8471 6.27173 33.1136 6.27173Z" stroke="#FFFFFF" stroke-width="1.1498px" stroke-miterlimit="10" stroke-linecap="round" stroke-linejoin="round" fill="none"></path>
                              </g>
                          </svg>